<svg xmlns="http://www.w3.org/2000/svg" viewBox="0 0 28 28"><defs><style>.cls-1{fill:#e5e5e5;}.cls-2{fill:none;stroke:#1a1a1a;stroke-linecap:round;stroke-linejoin:round;stroke-width:1.55px;}</style></defs><g id="Livello_2" data-name="Livello 2"><g id="Livello_1-2" data-name="Livello 1"><rect class="cls-1" width="28" height="28" rx="4"/><path class="cls-2" d="M15.94,14H12.06M14,12.06v3.88m-7.73,1H9.53a2.35,2.35,0,0,1,1,.11,1,1,0,0,1,.42.42,2.35,2.35,0,0,1,.11,1v3.26M6.23,16V9.34a4.88,4.88,0,0,1,.21-2,1.94,1.94,0,0,1,.85-.85,4.88,4.88,0,0,1,2.05-.21h9.32a4.88,4.88,0,0,1,2.05.21,1.94,1.94,0,0,1,.85.85,4.88,4.88,0,0,1,.21,2.05v9.32a4.88,4.88,0,0,1-.21,2.05,1.94,1.94,0,0,1-.85.85,4.88,4.88,0,0,1-2.05.21H12a4.45,4.45,0,0,1-.94-.05,1.86,1.86,0,0,1-.56-.24,3.91,3.91,0,0,1-.7-.62L7.14,18.24a3.91,3.91,0,0,1-.62-.7A1.86,1.86,0,0,1,6.28,17,4.45,4.45,0,0,1,6.23,16Z"/></g></g></svg>