<svg xmlns="http://www.w3.org/2000/svg" viewBox="0 0 28 28"><defs><style>.cls-1{fill:#1a1a1a;}.cls-2{fill:none;stroke:#e5e5e5;stroke-linecap:round;stroke-linejoin:round;stroke-width:1.5px;}</style></defs><g id="Livello_2" data-name="Livello 2"><g id="Livello_1-2" data-name="Livello 1"><rect class="cls-1" width="28" height="28" rx="4"/><path class="cls-2" d="M18.59,19.51h.73a4.6,4.6,0,0,0,1.94-.2,1.9,1.9,0,0,0,.8-.81,4.52,4.52,0,0,0,.2-1.93V12.35a4.6,4.6,0,0,0-.2-1.94,1.93,1.93,0,0,0-.8-.8,4.6,4.6,0,0,0-1.94-.2h-.73m0,0V7.21a2.32,2.32,0,0,0-.1-1,1,1,0,0,0-.4-.4,2.32,2.32,0,0,0-1-.1H10.88a2.32,2.32,0,0,0-1,.1,1,1,0,0,0-.4.4,2.32,2.32,0,0,0-.1,1v2.2m9.18,0H9.41m0,10.1H8.68a4.6,4.6,0,0,1-1.94-.2,1.9,1.9,0,0,1-.8-.81,4.52,4.52,0,0,1-.2-1.93V12.35a4.6,4.6,0,0,1,.2-1.94,1.93,1.93,0,0,1,.8-.8,4.6,4.6,0,0,1,1.94-.2h.73m9.18,3.67h0m-1.46,9.18H10.88a2.32,2.32,0,0,1-1-.1,1,1,0,0,1-.4-.4,2.32,2.32,0,0,1-.1-1V18.22a2.32,2.32,0,0,1,.1-1,1,1,0,0,1,.4-.4,2.32,2.32,0,0,1,1-.1h6.24a2.32,2.32,0,0,1,1,.1,1,1,0,0,1,.4.4,2.32,2.32,0,0,1,.1,1v2.57a2.32,2.32,0,0,1-.1,1,1,1,0,0,1-.4.4A2.32,2.32,0,0,1,17.12,22.26Z"/></g></g></svg>