<svg xmlns="http://www.w3.org/2000/svg" viewBox="0 0 28 28"><defs><style>.cls-1{fill:#1a1a1a;}.cls-2{fill:none;stroke:#e5e5e5;stroke-linecap:round;stroke-miterlimit:10;stroke-width:2px;}</style></defs><g id="Livello_2" data-name="Livello 2"><g id="Livello_1-2" data-name="Livello 1"><rect class="cls-1" width="28" height="28" rx="4" transform="translate(28 28) rotate(180)"/><path class="cls-2" d="M14,12.88v9.6m0-9.6c0-2.24,0-3.36.44-4.21a4,4,0,0,1,1.74-1.75c.86-.44,2-.44,4.22-.44h1a2.43,2.43,0,0,1,1.05.11,1,1,0,0,1,.44.44,2.43,2.43,0,0,1,.11,1v10.8a2.51,2.51,0,0,1-.11,1.06,1,1,0,0,1-.44.44,2.66,2.66,0,0,1-1.05.1H18.45a5.85,5.85,0,0,0-1.07.05,2.61,2.61,0,0,0-.67.21,5.36,5.36,0,0,0-.92.55L14,22.48m0-9.6c0-2.24,0-3.36-.44-4.21a4,4,0,0,0-1.74-1.75c-.86-.44-2-.44-4.22-.44h-1a2.43,2.43,0,0,0-1,.11A1,1,0,0,0,5.11,7a2.43,2.43,0,0,0-.11,1v10.8a2.51,2.51,0,0,0,.11,1.06,1,1,0,0,0,.44.44,2.66,2.66,0,0,0,1,.1h3a5.85,5.85,0,0,1,1.07.05,2.61,2.61,0,0,1,.67.21,5.77,5.77,0,0,1,.92.55L14,22.48"/></g></g></svg>