<svg xmlns="http://www.w3.org/2000/svg" viewBox="0 0 28 28"><defs><style>.cls-1{fill:#1a1a1a;}.cls-2{fill:none;stroke:#e5e5e5;stroke-linecap:round;stroke-miterlimit:10;stroke-width:2px;}</style></defs><g id="Livello_2" data-name="Livello 2"><g id="Livello_1-2" data-name="Livello 1"><rect class="cls-1" width="28" height="28" rx="4"/><path class="cls-2" d="M10.58,22.76H8.28A2.28,2.28,0,0,1,6,20.49V12.41a2.27,2.27,0,0,1,.8-1.74l5.71-4.9a2.3,2.3,0,0,1,3,0l5.71,4.9a2.27,2.27,0,0,1,.8,1.74v8.08a2.29,2.29,0,0,1-2.28,2.29h-2.3m-6.84,0V15.93a1.09,1.09,0,0,1,1-1.15h4.62a1.09,1.09,0,0,1,1.1,1.09v6.91m-6.85,0h6.85"/></g></g></svg>