<svg width="11" height="12" viewBox="0 0 11 12" fill="none" xmlns="http://www.w3.org/2000/svg">
<path d="M3.41708 10.6759H2.1567C1.82506 10.6759 1.50692 10.5446 1.27186 10.3106C1.0368 10.0767 0.903938 9.75919 0.902344 9.42756V4.98306C0.90255 4.80187 0.942011 4.62287 1.01801 4.45839C1.094 4.2939 1.20473 4.14784 1.34257 4.03023L4.47845 1.33459C4.70846 1.14224 4.99876 1.03685 5.2986 1.03685C5.59844 1.03685 5.88875 1.14224 6.11876 1.33459L9.25464 4.03023C9.39248 4.14784 9.50321 4.2939 9.5792 4.45839C9.6552 4.62287 9.69466 4.80187 9.69486 4.98306V9.42756C9.69486 9.76024 9.56271 10.0793 9.32747 10.3145C9.09224 10.5498 8.77319 10.6819 8.44051 10.6819H7.18013M3.41708 10.6819V6.91886C3.41299 6.83716 3.42556 6.75549 3.45403 6.67881C3.4825 6.60213 3.52627 6.53204 3.58268 6.47281C3.63909 6.41357 3.70697 6.36644 3.78217 6.33426C3.85737 6.30209 3.93833 6.28555 4.02013 6.28565H6.52883C6.61063 6.28555 6.69159 6.30209 6.7668 6.33426C6.842 6.36644 6.90987 6.41357 6.96628 6.47281C7.02269 6.53204 7.06646 6.60213 7.09493 6.67881C7.1234 6.75549 7.13598 6.83716 7.13189 6.91886V10.6819H3.36883" stroke="#E5E5E4" stroke-miterlimit="10"/>
</svg>
