<svg width="12" height="12" viewBox="0 0 12 12" fill="none" xmlns="http://www.w3.org/2000/svg">
<path d="M6.29796 7.09934V8.70949M6.29796 7.09934C5.68025 7.09961 5.08137 6.88678 4.60237 6.49677C4.12336 6.10675 3.79357 5.56344 3.66864 4.9585M6.29796 7.09934C6.91566 7.09961 7.51454 6.88678 7.99354 6.49677C8.47255 6.10675 8.80234 5.56344 8.92727 4.9585M8.97551 2.27491H10.453C10.5312 2.26639 10.61 2.26639 10.6882 2.27491C10.7924 2.29557 10.8882 2.34672 10.9634 2.42188C11.0385 2.49703 11.0897 2.5928 11.1103 2.69705C11.1184 2.77725 11.1184 2.85807 11.1103 2.93828C11.1308 3.17503 11.1308 3.41312 11.1103 3.64987C11.0483 3.96263 10.8949 4.24995 10.6694 4.4754C10.444 4.70086 10.1567 4.85431 9.84391 4.91629C9.60717 4.93719 9.36905 4.93719 9.13231 4.91629H8.94536M3.6204 2.27491H2.14292C2.06475 2.26639 1.98589 2.26639 1.90773 2.27491C1.80347 2.29557 1.7077 2.34672 1.63255 2.42188C1.5574 2.49703 1.50625 2.5928 1.48559 2.69705C1.47753 2.77725 1.47753 2.85807 1.48559 2.93828C1.46509 3.17503 1.46509 3.41312 1.48559 3.64987C1.54757 3.96263 1.70102 4.24995 1.92647 4.4754C2.15193 4.70086 2.43924 4.85431 2.752 4.91629C2.98874 4.93719 3.22686 4.93719 3.4636 4.91629H3.65055M3.66864 4.94041C3.63737 4.76319 3.62123 4.58364 3.6204 4.40369V2.02766C3.60274 1.84731 3.6191 1.66525 3.66864 1.49094C3.72547 1.38281 3.81379 1.29449 3.92193 1.23766C4.09623 1.18812 4.27829 1.17175 4.45864 1.18941H8.13727C8.31762 1.17175 8.49968 1.18812 8.67399 1.23766C8.78212 1.29449 8.87044 1.38281 8.92727 1.49094C8.97681 1.66525 8.99317 1.84731 8.97551 2.02766V4.40369C8.97468 4.58364 8.95855 4.76319 8.92727 4.94041M6.29796 8.6914C6.61659 8.67201 6.93641 8.69023 7.25078 8.74567C7.52333 8.81911 7.77167 8.96317 7.97074 9.16329C8.1698 9.36341 8.31253 9.61251 8.38452 9.88544C8.44606 10.1991 8.46634 10.5194 8.44483 10.8383H4.15108C4.12957 10.5194 4.14985 10.1991 4.21139 9.88544C4.28338 9.61251 4.42611 9.36341 4.62518 9.16329C4.82424 8.96317 5.07258 8.81911 5.34513 8.74567C5.6595 8.69023 5.97932 8.67201 6.29796 8.6914Z" stroke="#1A1A1A" stroke-miterlimit="10"/>
</svg>
