<svg width="7" height="9" viewBox="0 0 7 9" fill="none" xmlns="http://www.w3.org/2000/svg">
<path d="M6.3125 3.375H5.75V2.25C5.75 1.00744 4.74256 0 3.5 0C2.25744 0 1.25 1.00744 1.25 2.25V3.375H0.6875C0.376578 3.375 0.125 3.62658 0.125 3.9375V8.4375C0.125 8.74842 0.376578 9 0.6875 9H6.3125C6.62342 9 6.875 8.74842 6.875 8.4375V3.9375C6.875 3.62658 6.62342 3.375 6.3125 3.375ZM3.5 6.75C3.18908 6.75 2.9375 6.49842 2.9375 6.1875C2.9375 5.87658 3.18908 5.625 3.5 5.625C3.81092 5.625 4.0625 5.87658 4.0625 6.1875C4.0625 6.49842 3.81092 6.75 3.5 6.75ZM4.625 3.375H2.375V2.25C2.375 1.62872 2.87872 1.125 3.5 1.125C4.12128 1.125 4.625 1.62872 4.625 2.25V3.375Z" fill="#231F20"/>
</svg>
