<svg width="12" height="11" viewBox="0 0 12 11" fill="none" xmlns="http://www.w3.org/2000/svg">
<rect width="12" height="11" fill="#F5F5F5"/>
<rect width="1280" height="720" transform="translate(-33 -176)" fill="white"/>
<rect x="-13" y="-103" width="38" height="632" rx="4" fill="#1A1A1A"/>
<rect x="-1.74976" y="-2" width="16" height="16" rx="4" fill="#D9D9D9"/>
<path d="M2.68104 10.4343H1.5473C1.48173 10.4343 1.41884 10.4083 1.37247 10.3619C1.3261 10.3156 1.30005 10.2527 1.30005 10.1871V2.43785C1.30005 2.37228 1.3261 2.30938 1.37247 2.26302C1.41884 2.21665 1.48173 2.1906 1.5473 2.1906H2.68104C2.74662 2.1906 2.80951 2.21665 2.85587 2.26302C2.90224 2.30938 2.92829 2.37228 2.92829 2.43785V10.1871C2.92829 10.2527 2.90224 10.3156 2.85587 10.3619C2.80951 10.4083 2.74662 10.4343 2.68104 10.4343Z" stroke="#1A1A1A" stroke-miterlimit="10"/>
<path d="M10.7021 10.4343H9.55023C9.48466 10.4343 9.42177 10.4083 9.3754 10.3619C9.32903 10.3156 9.30298 10.2527 9.30298 10.1871V2.43785C9.30298 2.37228 9.32903 2.30938 9.3754 2.26302C9.42177 2.21665 9.48466 2.1906 9.55023 2.1906H10.7021C10.7676 2.1906 10.8305 2.21665 10.8769 2.26302C10.9233 2.30938 10.9493 2.37228 10.9493 2.43785V10.1871C10.9493 10.2527 10.9233 10.3156 10.8769 10.3619C10.8305 10.4083 10.7676 10.4343 10.7021 10.4343Z" stroke="#1A1A1A" stroke-miterlimit="10"/>
<path d="M6.95098 10.4344H5.46747C5.40189 10.4344 5.339 10.4083 5.29263 10.362C5.24626 10.3156 5.22021 10.2527 5.22021 10.1871V1.44888C5.22021 1.38331 5.24626 1.32042 5.29263 1.27405C5.339 1.22768 5.40189 1.20163 5.46747 1.20163H6.95098C7.01656 1.20163 7.07944 1.22768 7.12581 1.27405C7.17218 1.32042 7.19823 1.38331 7.19823 1.44888V10.1871C7.19823 10.2527 7.17218 10.3156 7.12581 10.362C7.07944 10.4083 7.01656 10.4344 6.95098 10.4344Z" stroke="#1A1A1A" stroke-miterlimit="10"/>
</svg>
