<svg width="24" height="23" viewBox="0 0 24 23" fill="none" xmlns="http://www.w3.org/2000/svg">
<path d="M11.6604 13.5875C11.5967 14.804 11.5811 15.93 11.4902 17.1496C11.976 17.1933 12.5243 17.2353 13.0423 17.1605L12.8873 13.7607L12.8601 13.5989C12.4657 13.6142 12.0925 13.6298 11.6604 13.5875ZM8.62631 10.1712C8.02789 10.4685 7.14755 10.9178 7.2447 11.7312C7.3729 12.1753 7.85803 12.4624 8.24201 12.6449C10.3641 13.5717 13.1812 13.6032 15.4217 12.9115C15.9747 12.7002 16.7174 12.3938 16.819 11.7221C16.813 11.1672 16.2202 10.8178 15.7944 10.6053V10.5789C15.9429 10.5209 16.1137 10.4685 16.2674 10.4525V10.4377C15.5171 10.3044 14.7925 10.1098 14.0657 9.9194C14.2056 10.2355 14.3068 10.5689 14.4234 10.8975C14.6417 10.8282 14.8657 10.7756 15.1013 10.7436C15.4845 10.8916 16.0335 11.1032 16.0879 11.5781C16.1305 12.0224 15.6399 12.2387 15.3302 12.4191C13.6868 13.0117 11.8378 13.0696 10.1238 12.619C9.65037 12.4712 8.96725 12.2814 8.90853 11.6838C9.24456 10.8974 10.1137 10.7336 10.8395 10.5427C10.4665 10.3044 10.0871 10.0935 9.72554 9.82844C9.3351 9.84977 8.97847 10.0192 8.62631 10.1712ZM12.2571 5.42553L12.0444 6.10245L10.9776 9.13111C11.2447 9.15808 11.5755 9.13111 11.8378 9.15808V9.18306L11.6817 12.6089L11.7086 12.6449C12.0499 12.6781 12.476 12.695 12.8239 12.6362V12.5823L12.6846 9.25939L12.7055 9.14696L13.6441 9.13111C13.176 7.90511 12.7218 6.66677 12.2846 5.42553H12.2571ZM11.7614 3.90381C12.5462 3.37392 13.2504 4.11482 13.8585 4.53822C16.2098 6.41401 18.4285 8.56115 20.1194 10.9859C20.3323 11.2987 20.4287 11.7845 20.2376 12.1386C19.7994 12.8632 19.2079 13.5246 18.6473 14.1962V14.2329C17.2494 15.7077 15.7731 17.2239 14.1778 18.4729C13.3992 18.9425 12.6846 19.968 11.6817 19.3326C9.39827 17.6788 7.21319 15.6227 5.3609 13.4173C5.04685 12.9325 4.5565 12.5352 4.33807 11.9852C4.03325 11.2406 4.7053 10.7063 5.08974 10.1455C6.97846 7.83685 9.32403 5.57301 11.7614 3.90381ZM13.7294 1.69893L12.8603 0.478108C12.7536 0.413814 12.6209 0.307166 12.503 0.275933C12.2468 0.165781 11.9704 0.299091 11.7612 0.456322L10.1887 2.48645C7.66558 5.58352 4.67886 8.47538 1.42052 10.6921C1.16304 10.8916 0.780135 11.0863 0.700355 11.4151C0.614889 11.7106 0.770297 11.9547 0.955525 12.1388C3.56472 13.9199 6.05923 16.0346 8.27968 18.4462C8.67381 18.8567 8.99338 19.2649 9.37891 19.6502C10.0284 20.5067 10.7913 21.3701 11.3883 22.2889C11.5755 22.4829 11.6076 22.8018 11.9003 22.8962C12.1295 22.9748 12.4125 23.0282 12.6311 22.8962L12.8484 22.6799C15.5482 18.8893 18.9722 15.4848 22.7978 12.7363C23.1805 12.3973 23.9121 12.2713 23.9225 11.6422C23.8953 11.352 23.7248 11.066 23.4734 10.9076L23.4108 10.8974C21.4421 9.57005 19.6078 8.06889 17.8798 6.36587L15.9701 4.38876C15.1965 3.53862 14.4446 2.59706 13.7294 1.69893ZM11.4793 3.43791C12.2468 2.84586 13.2126 3.33751 13.8584 3.88218C14.5347 4.39455 15.2392 4.97517 15.8576 5.56844L15.97 5.63243C17.6824 7.20717 19.2726 8.95727 20.579 10.8075C20.7908 11.1294 20.9781 11.4943 20.8597 11.9216C20.4241 13.0011 19.5388 13.8614 18.7649 14.8042C17.0903 16.5906 15.3238 18.3192 13.3463 19.6983C12.9464 19.9786 12.4067 20.2376 11.9275 20.0152C10.4718 19.26 9.2444 18.0229 7.9704 16.8957C6.49287 15.5378 5.00996 13.9568 3.89014 12.3028C3.72366 12.0708 3.67678 11.7845 3.68169 11.4784C3.82557 10.9076 4.22032 10.4377 4.5937 9.95642C5.91689 8.28508 7.53768 6.69968 9.17446 5.25139C9.21228 5.21437 9.28206 5.1353 9.3414 5.09766C10.0443 4.49525 10.7427 3.96201 11.4793 3.43791Z" fill="#1A1918"/>
</svg>
