<svg width="10" height="9" viewBox="0 0 10 9" fill="none" xmlns="http://www.w3.org/2000/svg">
<path d="M6.25129e-07 4.49504C2.80403e-07 2.01626 2.0325 -2.82662e-07 4.53125 -6.30165e-07C6.88 -9.56808e-07 8.84375 1.79553 9.04375 4.1032L9.49875 3.21287C9.56 3.10375 9.69625 3.03803 9.80375 3.10251L9.885 3.13351C9.99375 3.19923 10.0312 3.34059 9.97 3.44971L9.20375 4.93524C9.2025 4.93648 9.2025 4.93896 9.20125 4.94144L9.14625 5.04188C9.115 5.09644 9.06625 5.13365 9.01 5.14729C8.955 5.16217 8.8925 5.15597 8.83875 5.12249L8.74125 5.06296C8.73875 5.06172 8.73875 5.06048 8.73625 5.05924L7.29125 4.14164C7.1825 4.07716 7.145 3.93455 7.205 3.82543L7.25625 3.75351C7.31625 3.64315 7.4725 3.63571 7.58125 3.70143L8.4275 4.24208C8.4275 4.2396 8.42625 4.23712 8.42625 4.2334C8.2925 2.20846 6.58125 0.620005 4.53 0.620005C2.37625 0.620005 0.625 2.3585 0.625001 4.49504C0.625001 6.63158 2.37625 8.38 4.53125 8.37999C5.77125 8.37999 6.91 7.81455 7.65625 6.82998C7.76 6.69358 7.95625 6.66506 8.09375 6.76798C8.23125 6.8709 8.26 7.06558 8.15625 7.20198C7.29125 8.34403 5.97 9 4.5325 9C2.0325 9 9.69856e-07 6.97382 6.25129e-07 4.49504Z" fill="black"/>
</svg>
